<svg xmlns="http://www.w3.org/2000/svg" viewBox="0 0 200 200">
  <title>Membership Icon</title>
  <circle cx="100" cy="100" r="100" fill="blue"/>
  <path d="M65.62517,127.62466a28,28,0,1,1,0-54.86416,44.38591,44.38591,0,0,1,6.39551-6.50156,36,36,0,1,0,0,67.86728A44.38591,44.38591,0,0,1,65.62517,127.62466Z" fill="#fff"/>
  <path d="M105.62517,127.62466a28,28,0,1,1,0-54.86416,44.38591,44.38591,0,0,1,6.39551-6.50156,36,36,0,1,0,0,67.86728A44.38591,44.38591,0,0,1,105.62517,127.62466Z" fill="#fff"/>
  <path d="M140.00137,136.19258a36.44439,36.44439,0,0,1-4.31231-.25606l.94961-7.94336a28.63161,28.63161,0,0,0,6.75821-.00429l.95859,7.94218A36.56049,36.56049,0,0,1,140.00137,136.19258Zm-12.74766-2.32285a35.96522,35.96522,0,0,1-7.68652-4.03418l4.54531-6.5836a27.93731,27.93731,0,0,0,5.97441,3.13614Zm25.532-.01465-2.84219-7.47813a27.95288,27.95288,0,0,0,5.96719-3.14043l4.552,6.57852A35.94813,35.94813,0,0,1,152.78574,133.85508Zm-39.71269-9.768a36.11056,36.11056,0,0,1-4.93828-7.12969l7.07734-3.73008a28.0912,28.0912,0,0,0,3.843,5.54805Zm53.87754-.026-5.9875-5.30586a28.10853,28.10853,0,0,0,3.83925-5.55429l7.08086,3.723A36.11535,36.11535,0,0,1,166.95059,124.06113ZM105.04688,108.8418a36.15614,36.15614,0,0,1-1.04668-8.60938l8-.009a28.14216,28.14216,0,0,0,.81386,6.70234Zm69.916-.03867-7.76914-1.90782a28.13441,28.13441,0,0,0,.80645-6.70273v-.0711h8v.0711A36.14567,36.14567,0,0,1,174.96289,108.80313Zm-62.16367-15.283-7.77149-1.89922a35.83907,35.83907,0,0,1,3.07071-8.12422l7.08515,3.71484A27.82192,27.82192,0,0,0,112.79922,93.52012Zm54.37969-.09063a27.82849,27.82849,0,0,0-2.40489-6.29883l7.073-3.73789a35.83561,35.83561,0,0,1,3.09668,8.11172ZM119.0166,81.65332l-5.993-5.29961a36.21973,36.21973,0,0,1,6.48125-5.76094l4.55957,6.57344A28.195,28.195,0,0,0,119.0166,81.65332Zm41.90781-.067a28.18168,28.18168,0,0,0-5.06191-4.4709l4.53828-6.58828a36.19582,36.19582,0,0,1,6.5002,5.74121Zm-30.89668-7.567-2.85-7.475a35.85639,35.85639,0,0,1,8.427-2.08575l.96816,7.941A27.85321,27.85321,0,0,0,130.02773,74.01934Zm19.85723-.0334a27.85753,27.85753,0,0,0-6.55391-1.59785l.94024-7.94454a35.86213,35.86213,0,0,1,8.43809,2.05762Z" fill="#fff"/>
  <polygon points="156 96.193 144 96.193 144 84.193 136 84.193 136 96.193 124 96.193 124 104.193 136 104.193 136 116.193 144 116.193 144 104.193 156 104.193 156 96.193" fill="#fff"/>
</svg>
